<svg xmlns="http://www.w3.org/2000/svg" width="14" height="14" viewBox="0 0 14 14">
  <metadata><?xpacket begin="﻿" id="W5M0MpCehiHzreSzNTczkc9d"?>
<x:xmpmeta xmlns:x="adobe:ns:meta/" x:xmptk="Adobe XMP Core 5.6-c138 79.159824, 2016/09/14-01:09:01        ">
   <rdf:RDF xmlns:rdf="http://www.w3.org/1999/02/22-rdf-syntax-ns#">
      <rdf:Description rdf:about=""/>
   </rdf:RDF>
</x:xmpmeta>
                                                                                                    
                                                                                                    
                                                                                                    
                                                                                                    
                                                                                                    
                                                                                                    
                                                                                                    
                                                                                                    
                                                                                                    
                                                                                                    
                                                                                                    
                                                                                                    
                                                                                                    
                                                                                                    
                                                                                                    
                                                                                                    
                                                                                                    
                                                                                                    
                                                                                                    
                                                                                                    
                           
<?xpacket end="w"?></metadata>
<defs>
    <style>
      .cls-1 {
        fill: #dedee0;
        fill-rule: evenodd;
      }
    </style>
  </defs>
  <path id="形状_12" data-name="形状 12" class="cls-1" d="M12.292,4.888a5.521,5.521,0,0,0-3.8-1.477l-6.358.045L4.267,1.381,3.2,0.344,0,4.493,3.2,7.6,4.267,6.567,2.133,4.493h6.4a4.346,4.346,0,0,1,3.2,1.037A3.982,3.982,0,0,1,12.8,8.642h0a3.983,3.983,0,0,1-1.067,3.112,4.346,4.346,0,0,1-3.2,1.037H1.067v1.037H8.492a5.522,5.522,0,0,0,3.8-1.477,4.863,4.863,0,0,0,1.575-3.568V8.457a4.863,4.863,0,0,0-1.575-3.568"/>
</svg>
