<svg xmlns="http://www.w3.org/2000/svg" width="15" height="15" viewBox="0 0 15 15">
  <metadata><?xpacket begin="﻿" id="W5M0MpCehiHzreSzNTczkc9d"?>
<x:xmpmeta xmlns:x="adobe:ns:meta/" x:xmptk="Adobe XMP Core 5.6-c138 79.159824, 2016/09/14-01:09:01        ">
   <rdf:RDF xmlns:rdf="http://www.w3.org/1999/02/22-rdf-syntax-ns#">
      <rdf:Description rdf:about=""/>
   </rdf:RDF>
</x:xmpmeta>
                                                                                                    
                                                                                                    
                                                                                                    
                                                                                                    
                                                                                                    
                                                                                                    
                                                                                                    
                                                                                                    
                                                                                                    
                                                                                                    
                                                                                                    
                                                                                                    
                                                                                                    
                                                                                                    
                                                                                                    
                                                                                                    
                                                                                                    
                                                                                                    
                                                                                                    
                                                                                                    
                           
<?xpacket end="w"?></metadata>
<defs>
    <style>
      .cls-1 {
        fill: #888;
        fill-rule: evenodd;
      }
    </style>
  </defs>
  <path id="形状_2" data-name="形状 2" class="cls-1" d="M11.93,2.055C11.014,1.472,10.416,2.455,11,3h0c1.375,1.027,3,3.084,3,5,0,3.133-4.04,6-7,6A6.378,6.378,0,0,1,1,8C1,6.1,2.639,4.029,4,3H4a0.714,0.714,0,1,0-1.087-.927A7.466,7.466,0,0,0,0,8.052,6.862,6.862,0,0,0,7,15c3.829,0,8-2.947,8-7a7.479,7.479,0,0,0-3.07-5.945h0Zm0,0M8,6C8,7.222,7,7.222,7,6V1C7-.222,8-0.222,8,1V6ZM8,6"/>
</svg>
