<svg xmlns="http://www.w3.org/2000/svg" viewBox="0 0 18 20.05"><defs><style>.cls-1{fill:#dedee0;fill-rule:evenodd;}</style></defs><title>资源 1</title><g id="图层_2" data-name="图层 2"><g id="图层_1-2" data-name="图层 1"><path class="cls-1" d="M11,6c-.16,0-.09,0,0,0Zm7-1s0,.34,0,0Zm0,0L11.13,0H.34C.18,0,0,.11,0,.24V19.75c0,.13.18.24.34.24H17.71c.16,0,.28.14.28,0V5.62s0,0,0,0V5ZM12,2l4,3H12Zm5,17H1s0,.09,0,0V1H11V6h6ZM4,8.49a.5.5,0,0,0,.5.5h9a.5.5,0,0,0,0-1h-9A.5.5,0,0,0,4,8.49Zm9.5,2.5h-9a.5.5,0,0,0,0,1h9a.5.5,0,0,0,0-1Zm0,3h-9a.5.5,0,0,0,0,1h9a.5.5,0,0,0,0-1Z"/></g></g></svg>