<svg xmlns="http://www.w3.org/2000/svg" width="16" height="13" viewBox="0 0 16 13">
  <metadata><?xpacket begin="﻿" id="W5M0MpCehiHzreSzNTczkc9d"?>
<x:xmpmeta xmlns:x="adobe:ns:meta/" x:xmptk="Adobe XMP Core 5.6-c138 79.159824, 2016/09/14-01:09:01        ">
   <rdf:RDF xmlns:rdf="http://www.w3.org/1999/02/22-rdf-syntax-ns#">
      <rdf:Description rdf:about=""/>
   </rdf:RDF>
</x:xmpmeta>
                                                                                                    
                                                                                                    
                                                                                                    
                                                                                                    
                                                                                                    
                                                                                                    
                                                                                                    
                                                                                                    
                                                                                                    
                                                                                                    
                                                                                                    
                                                                                                    
                                                                                                    
                                                                                                    
                                                                                                    
                                                                                                    
                                                                                                    
                                                                                                    
                                                                                                    
                                                                                                    
                           
<?xpacket end="w"?></metadata>
<defs>
    <style>
      .cls-1 {
        fill: #dedee0;
        fill-rule: evenodd;
      }
    </style>
  </defs>
  <path id="形状_15" data-name="形状 15" class="cls-1" d="M8,13a8.413,8.413,0,0,1-8-6.5,8.389,8.389,0,0,1,8-6.5,8.4,8.4,0,0,1,8,6.5A8.4,8.4,0,0,1,8,13H8ZM8,0.752A7.561,7.561,0,0,0,.8,6.491,7.583,7.583,0,0,0,8,12.23a7.57,7.57,0,0,0,7.2-5.739A7.567,7.567,0,0,0,8,.752H8ZM8,9.935A3.524,3.524,0,0,1,4.4,6.491,3.524,3.524,0,0,1,8,3.047a3.524,3.524,0,0,1,3.6,3.444A3.524,3.524,0,0,1,8,9.935H8ZM8,3.813A2.741,2.741,0,0,0,5.2,6.491,2.741,2.741,0,0,0,8,9.169a2.741,2.741,0,0,0,2.8-2.678A2.741,2.741,0,0,0,8,3.813H8Zm0,0"/>
</svg>
