<svg xmlns="http://www.w3.org/2000/svg" width="12" height="14" viewBox="0 0 12 14">
  <metadata><?xpacket begin="﻿" id="W5M0MpCehiHzreSzNTczkc9d"?>
<x:xmpmeta xmlns:x="adobe:ns:meta/" x:xmptk="Adobe XMP Core 5.6-c138 79.159824, 2016/09/14-01:09:01        ">
   <rdf:RDF xmlns:rdf="http://www.w3.org/1999/02/22-rdf-syntax-ns#">
      <rdf:Description rdf:about=""/>
   </rdf:RDF>
</x:xmpmeta>
                                                                                                    
                                                                                                    
                                                                                                    
                                                                                                    
                                                                                                    
                                                                                                    
                                                                                                    
                                                                                                    
                                                                                                    
                                                                                                    
                                                                                                    
                                                                                                    
                                                                                                    
                                                                                                    
                                                                                                    
                                                                                                    
                                                                                                    
                                                                                                    
                                                                                                    
                                                                                                    
                           
<?xpacket end="w"?></metadata>
<defs>
    <style>
      .cls-1 {
        fill: #8e8e94;
        fill-rule: evenodd;
      }
    </style>
  </defs>
  <path id="形状_10" data-name="形状 10" class="cls-1" d="M9.277,6.067H2.725a0.253,0.253,0,0,1-.269-0.231V5.794a0.253,0.253,0,0,1,.269-0.231H9.277a0.253,0.253,0,0,1,.269.231V5.836a0.253,0.253,0,0,1-.269.231h0Zm0,0,0,1.882H2.725a0.253,0.253,0,0,1-.269-0.231V7.69a0.253,0.253,0,0,1,.269-0.231H9.277a0.253,0.253,0,0,1,.269.231V7.718a0.253,0.253,0,0,1-.269.231h0Zm0,0,0,1.861H2.725a0.253,0.253,0,0,1-.269-0.231V9.565a0.253,0.253,0,0,1,.269-0.231H9.277a0.253,0.253,0,0,1,.269.231V9.579a0.253,0.253,0,0,1-.269.231h0Zm0,0M12,3.931V3.913h0a0.2,0.2,0,0,0-.069-0.122L11.8,3.682h0L7.618,0.1,7.586,0.067A0.29,0.29,0,0,0,7.416,0H0.228A0.219,0.219,0,0,0,0,.168V13.832A0.219,0.219,0,0,0,.228,14H11.8a0.184,0.184,0,0,0,.2-0.168v-9.9h0Zm-4.332-.27V0.849l3.35,2.872-0.046,0H7.765c-0.07,0-.1,0-0.1-0.063h0Zm3.683,9.861H0.663a0.073,0.073,0,0,1-.09-0.091V0.628c0-.065.014-0.119,0.09-0.119H7.076V4.023a0.184,0.184,0,0,0,.2.168h4.153v9.24c0,0.065,0,.091-0.074.091h0Zm0,0"/>
</svg>
