<svg xmlns="http://www.w3.org/2000/svg" width="20" height="20" viewBox="0 0 20 20">
  <metadata><?xpacket begin="﻿" id="W5M0MpCehiHzreSzNTczkc9d"?>
<x:xmpmeta xmlns:x="adobe:ns:meta/" x:xmptk="Adobe XMP Core 5.6-c138 79.159824, 2016/09/14-01:09:01        ">
   <rdf:RDF xmlns:rdf="http://www.w3.org/1999/02/22-rdf-syntax-ns#">
      <rdf:Description rdf:about=""/>
   </rdf:RDF>
</x:xmpmeta>
                                                                                                    
                                                                                                    
                                                                                                    
                                                                                                    
                                                                                                    
                                                                                                    
                                                                                                    
                                                                                                    
                                                                                                    
                                                                                                    
                                                                                                    
                                                                                                    
                                                                                                    
                                                                                                    
                                                                                                    
                                                                                                    
                                                                                                    
                                                                                                    
                                                                                                    
                                                                                                    
                           
<?xpacket end="w"?></metadata>
<defs>
    <style>
      .cls-1 {
        fill: #dedee0;
        fill-rule: evenodd;
      }
    </style>
  </defs>
  <path id="形状_8" data-name="形状 8" class="cls-1" d="M19.425,11.365l-8.484,4.071a1.712,1.712,0,0,1-1.886,0L0.571,11.365A2.232,2.232,0,0,1,0,9.649c0.566,0.345,1.363.73,1.333,0.711L10,14.624l8.666-4.264c0.015,0,.787-0.419,1.333-0.711a2.273,2.273,0,0,1-.572,1.716h0Zm0-4.265-8.484,4.071a1.712,1.712,0,0,1-1.886,0L0.571,7.1a1.272,1.272,0,0,1,0-2.01L9.056,0.308a1.6,1.6,0,0,1,1.886,0L19.425,5.09a1.3,1.3,0,0,1,0,2.01h0ZM10,1.12L1.333,6.1,10,9.993l8.666-3.9Zm0,17.769,8.666-4.265c0.015,0,.787-0.42,1.333-0.711a2.273,2.273,0,0,1-.572,1.716L10.941,19.7a1.712,1.712,0,0,1-1.886,0L0.571,15.629A2.232,2.232,0,0,1,0,13.913c0.566,0.345,1.363.73,1.333,0.711Zm0,0"/>
</svg>
