<svg xmlns="http://www.w3.org/2000/svg" width="20" height="20" viewBox="0 0 20 20">
  <metadata><?xpacket begin="﻿" id="W5M0MpCehiHzreSzNTczkc9d"?>
<x:xmpmeta xmlns:x="adobe:ns:meta/" x:xmptk="Adobe XMP Core 5.6-c138 79.159824, 2016/09/14-01:09:01        ">
   <rdf:RDF xmlns:rdf="http://www.w3.org/1999/02/22-rdf-syntax-ns#">
      <rdf:Description rdf:about=""/>
   </rdf:RDF>
</x:xmpmeta>
                                                                                                    
                                                                                                    
                                                                                                    
                                                                                                    
                                                                                                    
                                                                                                    
                                                                                                    
                                                                                                    
                                                                                                    
                                                                                                    
                                                                                                    
                                                                                                    
                                                                                                    
                                                                                                    
                                                                                                    
                                                                                                    
                                                                                                    
                                                                                                    
                                                                                                    
                                                                                                    
                           
<?xpacket end="w"?></metadata>
<defs>
    <style>
      .cls-1 {
        fill: #dedee0;
        fill-rule: evenodd;
      }
    </style>
  </defs>
  <path id="形状_11" data-name="形状 11" class="cls-1" d="M13.362,19.368l6.006-6.008a2.16,2.16,0,0,0,0-3.049L9.684,0.623A2.137,2.137,0,0,0,7.995,0l-5.576.429A2.144,2.144,0,0,0,.436,2.41L0.007,7.99A2.154,2.154,0,0,0,.632,9.68l9.683,9.688a2.151,2.151,0,0,0,3.046,0h0ZM9.081,1.226l9.683,9.688a1.306,1.306,0,0,1,0,1.842l-6.006,6.009a1.331,1.331,0,0,1-1.84,0L1.236,9.076A1.3,1.3,0,0,1,.858,8.057l0.43-5.58a1.294,1.294,0,0,1,1.2-1.2l5.576-.429c0.033,0,.067,0,0.1,0a1.292,1.292,0,0,1,.919.38h0ZM6.5,6.493a1.711,1.711,0,1,0-1.206.5,1.694,1.694,0,0,0,1.206-.5h0ZM5.9,4.682a0.859,0.859,0,0,1,0,1.209,0.878,0.878,0,0,1-1.206,0A0.858,0.858,0,0,1,4.966,4.5a0.851,0.851,0,0,1,.93.185h0Zm0,0"/>
</svg>
