<svg xmlns="http://www.w3.org/2000/svg" width="14" height="14" viewBox="0 0 14 14">
  <metadata><?xpacket begin="﻿" id="W5M0MpCehiHzreSzNTczkc9d"?>
<x:xmpmeta xmlns:x="adobe:ns:meta/" x:xmptk="Adobe XMP Core 5.6-c138 79.159824, 2016/09/14-01:09:01        ">
   <rdf:RDF xmlns:rdf="http://www.w3.org/1999/02/22-rdf-syntax-ns#">
      <rdf:Description rdf:about=""/>
   </rdf:RDF>
</x:xmpmeta>
                                                                                                    
                                                                                                    
                                                                                                    
                                                                                                    
                                                                                                    
                                                                                                    
                                                                                                    
                                                                                                    
                                                                                                    
                                                                                                    
                                                                                                    
                                                                                                    
                                                                                                    
                                                                                                    
                                                                                                    
                                                                                                    
                                                                                                    
                                                                                                    
                                                                                                    
                                                                                                    
                           
<?xpacket end="w"?></metadata>
<defs>
    <style>
      .cls-1 {
        fill: #dedee0;
        fill-rule: evenodd;
      }
    </style>
  </defs>
  <path id="形状_16" data-name="形状 16" class="cls-1" d="M12,14H2a1.832,1.832,0,0,1-2-2S0.008,2.713,0,2C0,0.486.73-.051,2,0H12a1.832,1.832,0,0,1,2,2s-0.221,9.779,0,10a1.778,1.778,0,0,1-2,2h0ZM2,1A0.818,0.818,0,0,0,1,2V12a0.818,0.818,0,0,0,1,1H12a0.818,0.818,0,0,0,1-1V2a0.818,0.818,0,0,0-1-1H2ZM12,7H2V1H12V7ZM3,6h8V1H3V6ZM8,3H9V5H8V3Z"/>
</svg>
