<svg xmlns="http://www.w3.org/2000/svg" width="16" height="16" viewBox="0 0 16 16">
  <metadata><?xpacket begin="﻿" id="W5M0MpCehiHzreSzNTczkc9d"?>
<x:xmpmeta xmlns:x="adobe:ns:meta/" x:xmptk="Adobe XMP Core 5.6-c138 79.159824, 2016/09/14-01:09:01        ">
   <rdf:RDF xmlns:rdf="http://www.w3.org/1999/02/22-rdf-syntax-ns#">
      <rdf:Description rdf:about=""/>
   </rdf:RDF>
</x:xmpmeta>
                                                                                                    
                                                                                                    
                                                                                                    
                                                                                                    
                                                                                                    
                                                                                                    
                                                                                                    
                                                                                                    
                                                                                                    
                                                                                                    
                                                                                                    
                                                                                                    
                                                                                                    
                                                                                                    
                                                                                                    
                                                                                                    
                                                                                                    
                                                                                                    
                                                                                                    
                                                                                                    
                           
<?xpacket end="w"?></metadata>
<defs>
    <style>
      .cls-1 {
        fill: #dedee0;
        fill-rule: evenodd;
      }
    </style>
  </defs>
  <path id="形状_14" data-name="形状 14" class="cls-1" d="M7.856,4.541a3.5,3.5,0,1,0,3.5,3.5,3.506,3.506,0,0,0-3.5-3.5h0Zm0,6.071a2.568,2.568,0,1,1,2.569-2.568,2.571,2.571,0,0,1-2.569,2.568h0Zm0,0,7.719-4.218a2.179,2.179,0,0,1-1.6-.821,1.983,1.983,0,0,1,.51-1.712l0.223-.313-2.186-2.3-0.333.249a2.354,2.354,0,0,1-1.839.542,1.877,1.877,0,0,1-.6-1.588L9.735,0H6.269l-0.018.449a1.877,1.877,0,0,1-.6,1.588,2.356,2.356,0,0,1-1.839-.542l-0.333-.25L1.3,3.548,1.521,3.861a1.986,1.986,0,0,1,.511,1.71,2.156,2.156,0,0,1-1.6.822L0,6.433v1.4H0V9.556L0.429,9.595a2.156,2.156,0,0,1,1.6.822,1.985,1.985,0,0,1-.511,1.71L1.3,12.441l2.186,2.3,0.333-.25a2.356,2.356,0,0,1,1.839-.542,1.877,1.877,0,0,1,.6,1.588l0.017,0.449H9.735l0.018-.449a1.877,1.877,0,0,1,.6-1.588,2.355,2.355,0,0,1,1.839.542l0.333,0.249,2.186-2.3-0.223-.314a1.982,1.982,0,0,1-.51-1.712,2.179,2.179,0,0,1,1.6-.821L16,9.556v-1.7h0V6.433ZM15.066,7.837h0V8.731a2.688,2.688,0,0,0-1.942,1.294,2.425,2.425,0,0,0,.383,2.322L12.4,13.514a2.763,2.763,0,0,0-2.45-.406,2.242,2.242,0,0,0-1.1,1.947h-1.7a2.241,2.241,0,0,0-1.1-1.947,2.765,2.765,0,0,0-2.451.406L2.5,12.348a2.425,2.425,0,0,0,.383-2.322A2.689,2.689,0,0,0,.938,8.731V7.851h0V7.257A2.688,2.688,0,0,0,2.881,5.963,2.425,2.425,0,0,0,2.5,3.641L3.6,2.475a2.766,2.766,0,0,0,2.451.406A2.242,2.242,0,0,0,7.151.934h1.7a2.242,2.242,0,0,0,1.1,1.947A2.763,2.763,0,0,0,12.4,2.475l1.107,1.167a2.424,2.424,0,0,0-.383,2.322,2.688,2.688,0,0,0,1.942,1.295v0.58Zm0,0"/>
</svg>
